<?xml version="1.0" encoding="utf-8"?>
<!-- Generator: Adobe Illustrator 19.0.0, SVG Export Plug-In . SVG Version: 6.00 Build 0)  -->
<svg version="1.1" id="logo" xmlns="http://www.w3.org/2000/svg" xmlns:xlink="http://www.w3.org/1999/xlink" x="0px" y="0px"
	 viewBox="0 0 375.8 160.4" style="enable-background:new 0 0 375.8 160.4;" xml:space="preserve">
<style type="text/css">
	.st0{fill:#FFFFFF;}
	.st1{fill:#FCFCFC;}
</style>
<g id="XMLID_6_">
	<g id="XMLID_174_">
		<path id="XMLID_175_" class="st0" d="M51.9,74.4c0-0.2-0.1-0.3-0.1-0.4c0.1,0,0.2-0.1,0.2-0.4c0.8-1.3-0.2-0.2,0.8-1.9
			c2.1-0.2,1.3,0.2,2.3,0.4c0.6,0.2,0.2,0,0.9-0.2c3.1-0.7,1.9-0.2,4.3,1.6c3.7,2.9,2.3,3.2,2.7,7.7c-2,1-2.7,1.5-5.1,0.8
			C54.5,81.1,52,77.8,51.9,74.4z M51.8,73.9 M70,117.9c-1.3,2.2-1.4,0.9-3.2,1.1c-2.3,0.2-2.7-0.4-5.4-1.2
			c-4.9,0.2-5.9-29.2-9.5-29.3l1.1-1.1c0.2-0.5,0.4-0.8,0.6-1.5c2.9,0,2.5-1.5,5.4,0.3c1.2,0.6,4.3,4,4.9,5.1
			c0.4,0.6,0.6,1.3,1.1,2.1L70,117.9z"/>
		<path id="XMLID_179_" class="st0" d="M117,95.5c-0.3,1-1,2-1.5,2.9c-1.5,2.5-4.3,8.3-5.9,9.9c-1.1,1.2-2,2.8-3,4.4
			c-0.6,1-0.5,4-0.6,6.6c-0.3,4.8-0.6,2.5-1,5.3c-0.5,3-1.3,4.4-2.6,6.9c-0.7,1.8-1.9,2.7-3.2,4.6l-2.4,3.5c-2.3,2.3-1.9,2.4-3.9,2
			c-1-0.2-1.8-0.2-2.9-0.2c-1.8,0.4-1.5-0.3-3.1,0c-1.1,0.2-2.3-0.1-3.2-0.5c-1.1-0.5-1.5-1-1.9-2.1c-0.5-1.2-0.2-1.7-0.2-3.2
			c-0.2-2.8,1-5.3,2.6-7.1c2.1-2.2,3.6-3.3,6-4.9l6.5-4.3c0.2-4-0.8-4.9-1.3-6.1c-0.5-1.5-1-4.8-1.6-5.7c-1-1.2-0.8-1.7-1.5-3.2
			c-0.8,0.6-0.3,1-2.1,2c-2.1,1.4-0.3,1.1-2.4,1.9c-1.3,0.5-1.3,1.1-2.9,1.5c-2.3,0.4-4.6-0.5-6.7-1.2c-1.9-0.7-3.1-2.7-3.9-4.6
			c-0.8-1.6-1.6-4.4-1.3-6.4c0.5-2.7,0.8-4.4,2.1-6.5c0.8-1.1,1.3-1.2,2.3-2.1c2.1-1.9,2.4-1.9,5.9-2.5c1.8-0.3,4.2-2.3,4.7-3.6
			c-0.5-0.9-0.6-0.5-1.3-1c-0.5-0.3-0.2,0.2-0.5-0.7c-0.3-1.4-0.2-0.3,0.2-0.7c1-1,5.5,1.9,6.6,2.3c1.1,0.5,1.1,0.6,1.8,1.3
			c4.7,3.8,7.4,9.9,8.6,15.9c0.8,4,1.6,5.8,2.3,9.8l0.2-0.2l0.2-0.1c0,0,0.1-0.4,0.2-0.4c0.2-0.2,0.2-0.5,0.3-0.7
			c0.3-0.5,0.2-0.4,0.6-0.8l2.7-4.3c1.5-2,4.6-8.1,5.7-10.6C116.6,92,119,92,117,95.5z M89.3,84.6v0.2l-0.2,0.6
			c-0.3,0.7-2.7,2.4-3.6,2.9c-3.6,2.5-2.3,0.3-3.6,2.2c-0.6,0.8-2,1.7-2.5,2.8c-0.6,1.5-0.3,5.3-0.2,6.6c0.3,1.5,0.6,1.5,1.4,2.1
			c0.8-0.4,3.9-2,4.7-2.7c1.5-1.5,3.4-4.6,4-6.9c0.3-1.2,0.3-1.6,0.8-2.8C91.1,87.5,90.1,86.5,89.3,84.6z M97.1,122.3
			c-1.5-0.2-3.7,2.3-4.8,2.8c-1.6,0.7-3.1,2.1-4.5,3.2c-1.9,1.6-2.6,1.4-3.9,4c-2.3,5.1,1.3,7.5,3.1,6.5c1.5-0.9,1.6-0.2,3.1-0.7
			c3.2-1,2.7-1,4-3.7c1-2.1,1.3-3.6,2.1-5.9C96.4,127.5,97.3,123.3,97.1,122.3z"/>
		<path id="XMLID_183_" class="st0" d="M156.9,96.3c-0.2,0.6-0.1,1-1.5,4.5c-0.3,1-0.7,1.6-0.7,2.5l-1.2,3.8
			c-1.3,2.5,0.6,1.5-1.1,3.5l-3.2,2.7c-2.1,1.5-1.8,1.8-6.4,1.9c-1.8,0.1-3.2,0.1-4.8-0.6c-5.7-3.1-6.2-10.3-6.1-16.3
			c0-4.4,0.2-4,0.7-8c0.5-3.2,1-3.2,1.3-4.4c0.2-0.8,0-3.3,0.5-5c0.3-1.1,0.6-0.6,0.8-1.7c-0.3-0.6-1.3-1.5-1.8-1.8
			c-1,0.3-4.1,6.1-4.1,6.7c-0.6,3.2-1.6,2.1-1.9,3.5c-0.2,1.2,0.2,3.5-0.2,5.1c-0.3,1.5-0.3,3.2-0.6,4.7c-0.3,1.6,0.2,3.4,0,5.2
			c-0.2,5.7,2.7,4.6,2.3,7.8c-2.4,1-6.5,1.9-8.6,0.2c-0.9-0.3-2.2-2-2.5-2.9c-0.5-1-1-3-1.1-4.1c-0.6-3.5-0.6-11.8-0.2-15.4
			L116,73.1c-0.3-3.4-1-5.7-1.8-8.8l-2.3-6l-3.1-4.7c-0.8-1.1-2.5-1.8-2.8-2.5c-0.2-0.6,0.3-1.5,1.5-1.9c0.6-0.3,0.8-0.2,1.5-0.3
			c0.6-0.1,1-0.5,1.3-0.5c0.5-0.1,4.4,1.5,5.3,1.9c2.3,1.2,3.9,3.2,5.3,5.5l2.3,5.1l1.5,5.7c0.3,1,0.6,1.7,0.8,2.7
			c1.1,4,1.4,8.7,1.5,13.2c1.8-2.2,1.9-4.9,6.1-7.8c3.1-2,4.5-3.2,7-1.1c1.1,0.8,1.3,0.6,2.3,1.1c0.3,0.4,2.3,6.9,1.6,9.4
			c-1.5,5.5-2.3,2.7-2.1,8.7c0.2,3.2-0.3,4.7-0.3,5.6l0.8,4.9c1.6,3.7,2.3,4,4.3,4.2c1.3,0.1,1.1,0.2,1.9,0.9
			c2.1-1.1,3.5-4.9,4.3-7.4c0.5-1.4,0.6-3.2,1.1-4.7c0.5-1,2-4,2.5-4.8c0.5,0,0.5-0.2,0.8,0C158.7,92.4,157.7,94.5,156.9,96.3z"/>
		<path id="XMLID_185_" class="st0" d="M179.7,58.9v1.5c-0.8,0.4-1.1,0.2-1.7,0.6c-0.6,0.3,0.2,0.2-1.4,0.8c-3.5,1.4-8,1.1-12.2,1.5
			c0.2,1.5,0.6,2.9,0.9,4.1c0.6,1.9,1.5,19.5,1.8,22.3c0.2,3.2,0.2-0.7,0.2,2.5c-0.2,8.7-0.4,9.5,0.8,18.4c0.2,1.5,0.6,2.7,0.9,4
			c0.9,3.8,0.2,6.5,1.9,8.1c0.1,0.4,0.1,0.1,0.6,1c-1.5,0.6-0.5,0.6-2.7,0.6c-2.2,0.2-1.7,0.5-3.8-0.1c-4.4-0.9-5.4-0.6-7.8-3.5
			c-4.1-4.7-2.6-13.4-2.3-20.3c0.2-4.1,0.8-12.2,0.6-15.4l-0.9-11c-0.2-1.3-1.1-8.2-1.5-9.5c-0.2-0.6-0.2-0.3-0.3-0.6
			c-1.1-0.4-5.4-1-6.9-1.1c-1.5-0.2-4.4-0.5-5.7-1.1c-0.5-1.8-0.1-1.2,1.4-1.4c1.2-0.2,2.2,0,3.4-0.1c7.1-1,7.3,0.3,6.9-1.6l-1.1-4
			c-0.6-1.9-2.1-3.2-2.3-4.8c0.5-0.4,1.2-1.2,1.9-1c1.2,0.4-0.4,0.6,2,0.8c1.9,0.2,4.4,1.6,5.7,2.7c1.8,1.4,2.3,1.6,3.2,2.8
			c0.5,0.8,0.6,0.8,1.1,1.5c1.5,2.4-0.6,2.2,3.3,1.5c2.9-0.6,7.3-1.5,10.2-0.8L179.7,58.9z"/>
		<path id="XMLID_187_" class="st0" d="M217.9,96.3c-0.2,0.6-0.1,1-1.5,4.5c-0.3,1-0.7,1.6-0.7,2.5l-1.2,3.8c-1.3,2.5,0.6,1.5-1,3.5
			l-3.2,2.7c-2.1,1.5-1.8,1.8-6.4,1.9c-1.8,0.1-3.2,0.1-4.8-0.6c-5.7-3.1-6.2-10.3-6.1-16.3c0-4.4,0.2-4,0.7-8
			c0.5-3.2,1-3.2,1.3-4.4c0.2-0.8,0-3.3,0.5-5c0.3-1.1,0.6-0.6,0.8-1.7c-0.3-0.6-1.3-1.5-1.8-1.8c-1,0.3-4.1,6.1-4.1,6.7
			c-0.6,3.2-1.6,2.1-1.9,3.5c-0.2,1.2,0.2,3.5-0.2,5.1c-0.3,1.5-0.3,3.2-0.6,4.7c-0.3,1.6,0.2,3.4,0,5.2c-0.2,5.7,2.7,4.6,2.3,7.8
			c-2.4,1-6.5,1.9-8.6,0.2c-0.9-0.3-2.2-2-2.5-2.9c-0.5-1-1-3-1.1-4.1c-0.6-3.5-0.6-11.8-0.2-15.4L177,73.1c-0.3-3.4-1-5.7-1.8-8.8
			l-2.3-6l-3.1-4.7c-0.8-1.1-2.5-1.8-2.8-2.5c-0.2-0.6,0.3-1.5,1.5-1.9c0.6-0.3,0.8-0.2,1.5-0.3c0.6-0.1,1-0.5,1.3-0.5
			c0.5-0.1,4.4,1.5,5.3,1.9c2.3,1.2,3.9,3.2,5.3,5.5l2.3,5.1l1.5,5.7c0.3,1,0.6,1.7,0.8,2.7c1.1,4,1.4,8.7,1.5,13.2
			c1.8-2.2,1.9-4.9,6.1-7.8c3.1-2,4.5-3.2,7-1.1c1.1,0.8,1.3,0.6,2.3,1.1c0.3,0.4,2.3,6.9,1.6,9.4c-1.5,5.5-2.3,2.7-2.1,8.7
			c0.2,3.2-0.3,4.7-0.3,5.6l0.8,4.9c1.6,3.7,2.3,4,4.3,4.2c1.3,0.1,1.1,0.2,1.9,0.9c2.1-1.1,3.5-4.9,4.3-7.4
			c0.5-1.4,0.6-3.2,1.1-4.7c0.5-1,2-4,2.5-4.8c0.5,0,0.5-0.2,0.8,0C219.6,92.4,218.7,94.5,217.9,96.3z"/>
		<path id="XMLID_189_" class="st0" d="M244.7,88.6c1.1,1.1,1.5,2.2,3.6,2.9c4.4,0.7,9.3-1.1,8.9,1.3l-0.4,1.5
			c-0.5,0.6-4,0.7-6.3,0.2l-3.8-1.1c-3.6-1.9-3.2-2.3-5.4-4.1l-1,6.8c-0.4,0.7-0.8,3-1,3.7c-0.6,4.3-0.6,3.4-2.7,5.2
			c-1.9,1.6-6.5,1.3-8.6,0.7c-3.4-0.9-7.8-4.6-10.1-7.8c-1.8-2.3-3.1-7.5-3.3-10.5c-0.2-4-1-10.5,0.2-13.7c0-0.3,0.2-0.5,0.2-0.8
			l0.6-0.7l0.2-0.2c0.8-0.7,4.6-2.7,6.4,0c0.6,1.2,1,1.7,1.5,3c1.1,3.2,1,4.1,1.3,7.5c0.2,1.7,0.8,1.9,0.8,3.7
			c0.2,1.2,0.6,2.7,0.7,4c0.4,2.7,0.6,5.4,2.1,6.8l6,3c1.9-0.2,4-8.7,4.2-10.5c0.6-2.8,0-10.7-1.4-13.1c-1.1-1-9-0.4-11.6-2.5
			c-0.8-0.4-1.4-1.1-1.9-1.9c-1-1-2.1-2.9-2.3-4.5c0-0.5,0.2-1.4,0.2-1.5c-0.2-0.9-1.1-0.4-0.6-0.7c0.2,0,0-0.2,0-0.2
			c1.5-0.6,0-0.2,1-0.7c0.3-0.3,0.7-0.4,1.3-0.6c2.1-1.2,5.7-0.9,7.3-0.3c0.8,0.3,1,1.1,2.3,1.6c4,1.9,6.1,7.9,7.4,8.7
			c0.2,2.2,1.5,5.7,1.2,10.7C242.3,85.9,241.8,85.4,244.7,88.6z M236.7,73.5c-1.7-0.6,0.6-0.8-1-2.1c-0.2-0.2-0.2-0.2-0.4-0.3
			c-0.3-0.2-0.2,0-0.3-0.4c-0.6-0.9,0-0.7-1.2-1.8c-0.6-0.6-0.7-0.9-1.3-1.5c-1.2-1.3-1.4-2-3.5-2.7c-2.1-0.6-3.8-0.2-5,0.6
			c-1.9,1.3,0,5.5,2.9,6.5C228.3,72.3,235,73.5,236.7,73.5z"/>
		<path id="XMLID_192_" class="st0" d="M303.3,92c-0.4,1.4-1.2,4-1.6,5.1c-0.3,0.8-0.7,1.9-0.9,2.6c-1.9,4.5-1,3.6-3.2,7.9
			c-0.3,0.6-1,1.7-1.4,2.4c-1.1,1.8-3.9,4.6-5.8,5.3c-3.2,1.1-6.5,1.4-9.2-1c-4-3.4-2.3-4.1-4.2-7.5c-2.2,2.2-4.8,3.4-6.1,5.1
			c-1.8,2.4-6.4,1.9-8.2,0.8l-3.3-4.1c-7.1-12.7-2.8-21.5-6.4-26.8c-1.9-2.8-2.3-3.6,2.1-4.4c4.1-0.5,4.1-1.1,6.9,1.1
			c1,1,2.4,2.3,3.2,4.2c0.9,2.9,1.8,9.7,1.9,12.8c0.2,2.4,0.2,4.4,0.6,6.8c0.3,2.5,1.2,3.6,1.2,6.1c0.2,0.2,0.7,0.3,0.9,0.4
			c0.6,0.3,0.3,0.3,0.9,0.7c1.9-0.7,4.6-3.2,6-4.8c-0.3-7.8-0.9-20.4-1.8-28c-0.2-2.1-0.8-3,0.4-4.5c1-1.2,2.7-0.4,4.2,0
			c1.9,0.2,2.2,1.2,3.6,2.3c1.6,1.2,1.8,1.4,2.5,3.4c1.9,5.1,1,6.5,0.7,10.1c-0.2,2.3,0.2,3.7,0.2,5.7c0.2,7.5-0.7,8.4,1.1,16
			c0.7,2.6-0.2,2.3,0.7,3.2c0.3,0.3,1.3-0.8,1.7-0.6c2.3-0.8,3.2-3.8,4.5-5.7c1.9-2.9,4.1-8.7,4.8-10.9c0-0.1,0.6-2.3,1.4-4
			L303.3,92z"/>
		<path id="XMLID_194_" class="st0" d="M340.9,94.9c-2,0.4-11.1,2-12.3,2.7c0.4,1.6,0.9,2.3,1.4,3.8c0.3,2.1-0.2,3.2-0.2,4.9
			c0.2,0.8,1.1,2.9,0,4.2c-2,3-6.1,5.5-9.5,6.9c-5.7,2.3-3.9,1.1-6.2,1.5c-6.8,1.5-6.8-0.8-8.8-2.6c-2.5-2.7-1.9-5-0.3-8
			c0.3-0.7,0-0.2,0.6-0.6h0.2c0,0,0.2-0.2,0.4-0.2c0.3-0.2,0.5-0.6,0.6-0.8c0.5-0.5,0.8-0.7,1.5-1.3c1.7-1.5,4.2-3.4,6.2-4.4
			c1.2-0.6,2.3-1.1,3.6-1.8c-0.5-2.3-1.9-2.5-2.9-4.2c-1.9-2.6-0.8-1.3-3-3.6c-0.7-0.6-1.2-1.3-1.7-1.9c-4.2-4.7-3.1-4.4-3.9-6.2
			c-0.3,0.5-0.6,2.5-0.8,3.2l-1.5,3.9c-0.6,2.2-1.5,2.7-2.2,4c0,0.1-0.9-0.4-2.3-1.1c0.3-0.4,1-2.2,1.5-3.3c1.4-3.2,3.2-9,4.4-12
			c0.7-1.6,1.1-2.5,2-3.4c2.3-2.1,4.4-3.6,7.8-3.2c2.8,0.4,3,0.4,3.7,1.7c-1.2,0.9-1.2,0.8-2.9,0.9c-1,0-1.9,0.2-2.8,0.6
			c0,1.2,0.2,2.7,0.3,4c0.2,2.3,1.7,3.9,3.3,5.3c0.6,0.4,0.7,0.4,1.2,0.9l3.2,3.3c0.5,0.5,0.8,0.9,1.1,1.3c4.3,4,1.9,2.2,4.3,5.6
			l0.3,0.6c0,0,0,0,0,0.1l10.6-2.6c0.5-0.2,3.1-1,3.6-1c0.8-0.3,1.2,1.1,1.5,2C342.8,94.3,341.6,94.8,340.9,94.9z M318.7,101.4
			c-0.6,0-4.1,1.8-4.6,2.2c-1.1,0.8-2.5,2.3-4.2,3.4c-1.3,1-2.5,2.2-3.5,3.5c-0.9,1.1-1,0.5-1,1.9c0.2,2.3,1.3,3.2,3.3,3.5
			c0.6,0,4.2-0.9,4.9-1.9c0.3-0.5,0.3-0.8,0.8-1.1c0.3-0.6,0.5-0.4,1-1c1.9-2.1,2.1-1.7,2.9-4.3C319,105.5,318.8,103.5,318.7,101.4z
			"/>
		<path id="XMLID_197_" class="st0" d="M372.5,97.9c-0.3,1.2-0.3,0.6-0.6,1.6c-0.7,1.6-0.9,1.8-2,2.8c-1.5,1.3-2.2,0.6-2.2,3.1
			l-8,5.7c-3.2,1.6-0.7,1.7-3.9,2.3c-0.5,0-0.5,0-1,0.1c0,0,0,0-0.2,0.2c0,0,0,0-0.2,0l-1.7,0.5c-0.6,0.2-5.9-0.7-6.5-1
			c-1-0.3-1.7-1.1-2.5-1.4c-0.6-0.2-0.5,0-1-0.8c-1.9-2-2.7-2.4-3.2-6.7c-0.8-6.9,1.1-11.4,4.8-15.4c3.7-3.9,6.7-7.9,11.6-8.8
			c2.2-0.4,4,1.2,5.2,2.7c1.2,1.4,1.4,4.6,0.2,5.8c-0.8,0.7-1.1,1-1.6,2.4c-1.7,3.6-2.2,3-3.7,4.7c-0.3,0.3-0.5,0.6-0.8,1.1
			c-0.5,0.4-0.5,0.4-1,0.9c-0.5,0.6-0.5,0.6-1,1.1c-0.3,0.4-0.5,0.8-0.8,1.3c-1.5,2.2-2.3,1-1,4.1c0.3,0.8,0.7,1.2,1.2,1.7
			c1.1,1.5,0.6,2.1,3.2,2.1c3.9,0.1,6.2-0.8,8.2-2.7l2.7-2.7c5.7-8,6.5-8.2,6.6-9.5c0.6-0.4,1.7-0.5,2.5-0.6
			C376.7,93.6,372.8,97.1,372.5,97.9z M350.3,99.4l2.5-2.8c0,0,0.2-0.2,0.2-0.2l3.3-3.6c0.6-0.6,0.6-1.1,1-1.9
			c0.6-0.6,0.8-0.7,1.3-1.8c0.9-1.5,1.4-8.8-4.5-4.5C351.2,86.6,349.8,96,350.3,99.4z"/>
	</g>
	<g id="XMLID_2_">
		<path id="XMLID_169_" class="st0" d="M210.7,147.8h5.9c0.3,0.1,0.5,0.3,0.5,0.5v0.2c-0.1,0.3-0.3,0.5-0.5,0.5h-2.4v7.8
			c-0.1,0.4-0.3,0.6-0.6,0.6c-0.4,0-0.6-0.2-0.6-0.7V149h-2.3c-0.3,0-0.5-0.2-0.6-0.6C210.2,148,210.4,147.8,210.7,147.8z"/>
		<path id="XMLID_167_" class="st0" d="M138.7,147.9c0.3,0,0.5,0.2,0.6,0.5v6.3c0,0.5,0.6,1,1.8,1.3c0.4,0.1,0.7,0.1,1.1,0.1
			c1.2,0,2.1-0.3,2.7-1c0.1-0.1,0.1-0.3,0.1-0.4v-6.2c0.1-0.4,0.3-0.6,0.6-0.6c0.3,0,0.5,0.2,0.6,0.5v9.2c0,1.2-0.8,2.1-2.5,2.6
			c-0.5,0.1-1,0.2-1.5,0.2h-0.2c-1.6,0-2.9-0.5-3.7-1.6c-0.2-0.3-0.3-0.7-0.3-1.1c0.1-0.4,0.2-0.6,0.5-0.6h0.1
			c0.4,0,0.5,0.3,0.5,0.8c0.1,0.4,0.5,0.7,1,0.9c0.6,0.2,1.1,0.4,1.7,0.4h0.4c1.1,0,2-0.4,2.6-1c0.1-0.2,0.1-0.3,0.1-0.5v-1.2
			c-0.9,0.5-1.8,0.8-2.9,0.8c-1.5,0-2.7-0.5-3.6-1.4c-0.3-0.4-0.4-0.8-0.4-1.3v-6.1C138.2,148.1,138.4,147.9,138.7,147.9z"/>
		<path id="XMLID_164_" class="st0" d="M154.7,148c1.7,0.1,2.8,0.6,3.2,1.6c0,0.1,0.1,0.3,0.1,0.4v6.3c0.2,0,0.5,0.3,0.8,0.8
			c0.2,0.4,0.3,0.9,0.3,1.6v0.1c0,0.3-0.2,0.5-0.6,0.5h0c-0.4,0-0.6-0.3-0.6-0.9c0-0.6-0.1-1-0.4-1h-5.6c-0.2,0-0.3,0.3-0.4,0.9
			c0,0.6-0.1,0.9-0.2,0.9c-0.1,0.1-0.2,0.1-0.3,0.1h0c-0.4-0.1-0.6-0.2-0.6-0.5v-0.1c0-1.3,0.3-2,1-2.3c0,0,0.1,0,0.1,0v-6.2
			c0-1,0.8-1.6,2.3-2C154,148,154.4,148,154.7,148z M152.5,156.2h4.3V150c-0.2-0.5-0.8-0.7-1.9-0.8h-0.3c-1.1,0.1-1.8,0.3-2.1,0.8
			V156.2z"/>
		<path id="XMLID_161_" class="st0" d="M166.5,147.9h0.3c1.2,0,2.2,0.4,3,1.2c0.4,0.5,0.6,0.9,0.6,1.3v4.3c0,0.9-0.6,1.6-1.8,2.2
			c-0.6,0.2-1.2,0.3-1.9,0.3c-1.4,0-2.6-0.5-3.3-1.6c-0.2-0.4-0.3-0.7-0.3-1v-4.4c0-0.9,0.6-1.7,1.9-2.2
			C165.5,148,166,147.9,166.5,147.9z M164.1,150.7v3.8c0,0.8,0.6,1.3,1.8,1.6c0.2,0,0.5,0.1,0.7,0.1h0.1c1.2,0,2-0.4,2.4-1.2
			c0-0.1,0.1-0.3,0.1-0.4v-3.8c0-0.8-0.6-1.4-1.9-1.6l-0.6-0.1c-1.3,0.1-2.2,0.5-2.5,1.2C164.2,150.4,164.1,150.5,164.1,150.7z"/>
		<path id="XMLID_159_" class="st0" d="M174.9,148.1L174.9,148.1c0.4,0.1,0.6,0.2,0.6,0.5v1.8c0,0.9,0.2,1.5,0.5,1.7h2.4v-2.5
			c0-0.5,0.2-0.7,0.7-0.7c0.3,0.1,0.5,0.3,0.5,0.6v2.6h2.4c0.3-0.3,0.5-0.8,0.5-1.4v-2.1c0.1-0.4,0.3-0.6,0.6-0.6h0
			c0.3,0,0.5,0.2,0.6,0.7v1.8c0,0.9-0.2,1.6-0.6,2.1v0.1c0.4,0.5,0.6,1.3,0.6,2.2v1.8c-0.1,0.4-0.2,0.6-0.5,0.6h-0.2
			c-0.3,0-0.4-0.2-0.5-0.6v-1.9c0-0.7-0.2-1.2-0.5-1.5h-2.4v2.8c-0.1,0.4-0.3,0.6-0.6,0.6c-0.4,0-0.6-0.2-0.6-0.7v-2.7H176
			c-0.3,0.2-0.5,0.8-0.5,1.7v1.9c0,0.2-0.2,0.4-0.5,0.5h-0.1c-0.3-0.1-0.5-0.2-0.5-0.5v-2.2c0-0.7,0.2-1.4,0.6-1.9
			c-0.4-0.6-0.6-1.2-0.6-1.8v-2.3C174.3,148.3,174.5,148.1,174.9,148.1z"/>
		<path id="XMLID_156_" class="st0" d="M191.5,148.1h0.1c1.5,0,2.7,0.5,3.5,1.5c0.2,0.4,0.3,0.8,0.3,1.2v1.8
			c-0.1,0.4-0.2,0.7-0.5,0.7h-6.2v1.4c0,0.7,0.7,1.2,2.2,1.5c0.1,0,0.3,0,0.5,0h0.1c1.5-0.1,2.4-0.5,2.7-1.3c0-0.5,0.2-0.7,0.6-0.7
			c0.3,0,0.5,0.2,0.6,0.6c0,1-0.7,1.8-2.1,2.3c-0.5,0.2-1.1,0.3-1.8,0.3c-1.5,0-2.7-0.5-3.5-1.5c-0.3-0.3-0.4-0.8-0.4-1.4v-3.6
			c0-1.2,0.8-2.1,2.3-2.6C190.5,148.1,191,148.1,191.5,148.1z M188.8,150.7v1.4h5.5v-1.5c0-0.5-0.5-0.9-1.4-1.2
			c-0.4-0.1-0.8-0.2-1.2-0.2h-0.4c-1.1,0-2,0.4-2.5,1.1C188.8,150.5,188.8,150.6,188.8,150.7z"/>
		<path id="XMLID_154_" class="st0" d="M203.4,147.9c1.7,0,2.9,0.6,3.7,1.7c0.2,0.3,0.3,0.7,0.3,1c0,0.3-0.2,0.5-0.6,0.5h0
			c-0.4,0-0.6-0.3-0.6-0.8c-0.5-0.8-1.4-1.2-2.8-1.2c-1.5,0.1-2.5,0.5-2.8,1.3c0,0.1,0,0.2,0,0.3v3.8c0,0.7,0.6,1.2,1.8,1.5
			c0.3,0.1,0.7,0.1,1,0.1c1.3,0,2.2-0.4,2.7-1.2c0.1-0.5,0.2-0.8,0.3-0.8c0.1-0.1,0.2-0.1,0.3-0.1h0c0.3,0,0.5,0.2,0.6,0.6
			c0,1.1-0.8,1.9-2.4,2.4c-0.7,0.1-1.2,0.2-1.6,0.2c-1.5,0-2.7-0.5-3.5-1.4c-0.3-0.4-0.4-0.8-0.4-1.1v-4.3c0-0.9,0.7-1.6,2-2.2
			C202.2,148,202.8,147.9,203.4,147.9z"/>
		<path id="XMLID_150_" class="st0" d="M221.2,148.1h2.4c1.5,0,2.5,0.4,3,1.2c0,0.2,0.1,0.4,0.1,0.5v0.6c0,0.5-0.2,0.9-0.5,1.2
			c0.3,0.1,0.6,0.4,1,0.9c0.2,0.3,0.3,0.5,0.3,0.8v1.8c0,0.9-0.7,1.6-2,2c-0.4,0.1-0.9,0.2-1.4,0.2h-2.7c-0.4,0-0.6-0.2-0.6-0.7
			v-7.7C220.6,148.4,220.8,148.1,221.2,148.1z M221.8,149.3v1.8h1.5c1.1,0,1.9-0.2,2.2-0.5v-0.9c-0.5-0.3-1-0.4-1.7-0.4H221.8z
			 M221.8,152.3v3.9h2.3c1,0,1.7-0.3,2.1-0.9l0-0.3v-1.3c0-0.7-0.6-1.1-1.8-1.3c-0.3,0-0.5,0-0.8,0H221.8z"/>
		<path id="XMLID_147_" class="st0" d="M235.2,148.1h0.1c1.5,0,2.7,0.5,3.5,1.5c0.2,0.4,0.3,0.8,0.3,1.2v1.8
			c-0.1,0.4-0.2,0.7-0.5,0.7h-6.2v1.4c0,0.7,0.7,1.2,2.2,1.5c0.1,0,0.3,0,0.5,0h0.1c1.5-0.1,2.4-0.5,2.7-1.3c0-0.5,0.2-0.7,0.6-0.7
			c0.3,0,0.5,0.2,0.6,0.6c0,1-0.7,1.8-2.1,2.3c-0.5,0.2-1.1,0.3-1.8,0.3c-1.5,0-2.7-0.5-3.5-1.5c-0.3-0.3-0.4-0.8-0.4-1.4v-3.6
			c0-1.2,0.8-2.1,2.3-2.6C234.2,148.1,234.8,148.1,235.2,148.1z M232.5,150.7v1.4h5.5v-1.5c0-0.5-0.5-0.9-1.4-1.2
			c-0.4-0.1-0.8-0.2-1.2-0.2h-0.4c-1.1,0-2,0.4-2.5,1.1C232.6,150.5,232.5,150.6,232.5,150.7z"/>
		<path id="XMLID_145_" class="st0" d="M243.7,148c0.4,0.1,0.6,0.2,0.6,0.5v3.5h4.6v-3.5c0.1-0.4,0.3-0.6,0.6-0.6
			c0.3,0,0.5,0.2,0.6,0.6v8.1c-0.1,0.4-0.3,0.6-0.6,0.6h0c-0.3,0-0.5-0.2-0.6-0.7v-3.4h-4.6v3.6c0,0.2-0.2,0.4-0.5,0.5h0
			c-0.4-0.1-0.6-0.2-0.6-0.5v-8.3C243.1,148.3,243.3,148.1,243.7,148z"/>
		<path id="XMLID_143_" class="st0" d="M254.5,148c0.4,0.1,0.6,0.2,0.6,0.5v3.5h4.6v-3.5c0.1-0.4,0.3-0.6,0.6-0.6
			c0.3,0,0.5,0.2,0.6,0.6v8.1c-0.1,0.4-0.3,0.6-0.6,0.6h0c-0.3,0-0.5-0.2-0.6-0.7v-3.4h-4.6v3.6c0,0.2-0.2,0.4-0.5,0.5h0
			c-0.4-0.1-0.6-0.2-0.6-0.5v-8.3C253.9,148.3,254.1,148.1,254.5,148z"/>
		<path id="XMLID_140_" class="st0" d="M268.8,148h0.2c1.6,0,2.8,0.5,3.6,1.5c0.2,0.4,0.3,0.8,0.3,1.4v3.8c0,1-0.5,1.7-1.6,2.1
			c-0.7,0.3-1.5,0.5-2.5,0.5c-1.7,0-3-0.5-3.7-1.4c-0.2-0.3-0.3-0.6-0.3-0.9v-1.8c0-0.9,0.8-1.6,2.5-2.1c0.5-0.1,1-0.2,1.4-0.2h0.3
			c1,0,1.9,0.2,2.7,0.6v-1c0-0.7-0.8-1.2-2.4-1.5h-0.7c-1,0-1.8,0.3-2.4,0.9c-0.1,0.1-0.2,0.4-0.3,0.8c-0.2,0.2-0.3,0.3-0.5,0.3
			h-0.1c-0.2,0-0.4-0.2-0.5-0.5v-0.1c0-1,0.8-1.8,2.5-2.4C267.8,148.1,268.3,148,268.8,148z M266,153.3v1.8c0,0.4,0.6,0.7,1.9,1
			c0.4,0,0.7,0.1,0.9,0.1h0.2c1.1,0,2-0.3,2.6-0.9c0.1-0.1,0.1-0.2,0.1-0.3v-1.6c0-0.5-0.7-0.9-2.2-1.1c-0.1,0-0.3,0-0.7-0.1
			c-1.3,0-2.2,0.3-2.8,0.9L266,153.3z"/>
		<path id="XMLID_137_" class="st0" d="M280.6,147.9h2.1c0.5,0,0.7,0.2,0.7,0.7v8.2c-0.1,0.4-0.2,0.6-0.5,0.6h-0.1
			c-0.3,0-0.5-0.2-0.5-0.6v-3.5h-1.9c-1,0-1.7,0.2-2.1,0.7v2.8c0,0.3-0.2,0.5-0.6,0.5c-0.4-0.1-0.6-0.3-0.6-0.5v-2.9
			c0-0.4,0.3-0.9,0.8-1.3c-0.6-0.4-0.8-0.8-0.8-1.3v-1.5c0-0.9,0.8-1.5,2.4-1.9C279.8,148,280.2,147.9,280.6,147.9z M278.1,151.2
			c0,0.5,0.6,0.7,1.8,0.9h2.2v-2.9h-1.9c-1.1,0-1.9,0.3-2.1,0.8V151.2z"/>
		<path id="XMLID_135_" class="st0" d="M296.5,147.9c1.7,0,2.9,0.6,3.7,1.7c0.2,0.3,0.3,0.7,0.3,1c0,0.3-0.2,0.5-0.6,0.5h0
			c-0.4,0-0.6-0.3-0.6-0.8c-0.5-0.8-1.4-1.2-2.8-1.2c-1.5,0.1-2.5,0.5-2.8,1.3c0,0.1,0,0.2,0,0.3v3.8c0,0.7,0.6,1.2,1.8,1.5
			c0.3,0.1,0.7,0.1,1,0.1c1.3,0,2.2-0.4,2.7-1.2c0.1-0.5,0.2-0.8,0.3-0.8c0.1-0.1,0.2-0.1,0.3-0.1h0c0.3,0,0.5,0.2,0.6,0.6
			c0,1.1-0.8,1.9-2.4,2.4c-0.7,0.1-1.2,0.2-1.6,0.2c-1.5,0-2.7-0.5-3.5-1.4c-0.3-0.4-0.4-0.8-0.4-1.1v-4.3c0-0.9,0.7-1.6,2-2.2
			C295.3,148,295.9,147.9,296.5,147.9z"/>
		<path id="XMLID_133_" class="st0" d="M304.6,147.8h5.9c0.3,0.1,0.5,0.3,0.5,0.5v0.2c-0.1,0.3-0.3,0.5-0.5,0.5h-2.4v7.8
			c-0.1,0.4-0.3,0.6-0.6,0.6c-0.4,0-0.6-0.2-0.6-0.7V149h-2.3c-0.3,0-0.5-0.2-0.6-0.6C304.1,148,304.3,147.8,304.6,147.8z"/>
		<path id="XMLID_131_" class="st0" d="M315.4,147.9c0.3,0,0.5,0.2,0.6,0.5v6.3c0,0.5,0.6,1,1.8,1.3c0.4,0.1,0.7,0.1,1.1,0.1
			c1.2,0,2.1-0.3,2.7-1c0.1-0.1,0.1-0.3,0.1-0.4v-6.2c0.1-0.4,0.3-0.6,0.6-0.6c0.3,0,0.5,0.2,0.6,0.5v9.2c0,1.2-0.8,2.1-2.5,2.6
			c-0.5,0.1-1,0.2-1.5,0.2h-0.2c-1.6,0-2.9-0.5-3.7-1.6c-0.2-0.3-0.3-0.7-0.3-1.1c0.1-0.4,0.2-0.6,0.5-0.6h0.1
			c0.4,0,0.5,0.3,0.5,0.8c0.1,0.4,0.5,0.7,1,0.9c0.6,0.2,1.1,0.4,1.7,0.4h0.4c1.1,0,2-0.4,2.6-1c0.1-0.2,0.1-0.3,0.1-0.5v-1.2
			c-0.9,0.5-1.8,0.8-2.9,0.8c-1.5,0-2.7-0.5-3.6-1.4c-0.3-0.4-0.4-0.8-0.4-1.3v-6.1C314.9,148.1,315.1,147.9,315.4,147.9z"/>
		<path id="XMLID_128_" class="st0" d="M331.4,148c1.7,0.1,2.8,0.6,3.2,1.6c0,0.1,0.1,0.3,0.1,0.4v6.3c0.2,0,0.5,0.3,0.8,0.8
			c0.2,0.4,0.3,0.9,0.3,1.6v0.1c0,0.3-0.2,0.5-0.6,0.5h0c-0.4,0-0.6-0.3-0.6-0.9c0-0.6-0.1-1-0.4-1h-5.6c-0.2,0-0.3,0.3-0.4,0.9
			c0,0.6-0.1,0.9-0.2,0.9c-0.1,0.1-0.2,0.1-0.3,0.1h0c-0.4-0.1-0.6-0.2-0.6-0.5v-0.1c0-1.3,0.3-2,1-2.3c0,0,0.1,0,0.1,0v-6.2
			c0-1,0.8-1.6,2.3-2C330.8,148,331.1,148,331.4,148z M329.3,156.2h4.3V150c-0.2-0.5-0.8-0.7-1.9-0.8h-0.3c-1.1,0.1-1.8,0.3-2.1,0.8
			V156.2z"/>
		<path id="XMLID_126_" class="st0" d="M340.4,148c0.4,0.1,0.6,0.3,0.6,0.5v6.1c0,0.7,0.6,1.2,1.8,1.5c0.2,0,0.4,0.1,0.6,0.1h0.2
			c1,0,1.8-0.3,2.3-1c0.1-0.2,0.2-0.4,0.2-0.7v-5.9c0-0.3,0.2-0.5,0.6-0.5c0.4,0.1,0.6,0.3,0.6,0.5v6.3c0,0.9-0.6,1.7-1.9,2.2
			c-0.6,0.2-1.2,0.3-1.8,0.3c-1.5,0-2.6-0.5-3.3-1.6c-0.2-0.3-0.3-0.6-0.3-0.9v-6.3C339.8,148.3,340,148.1,340.4,148z"/>
		<path id="XMLID_123_" class="st0" d="M354.7,147.9h2.1c0.5,0,0.7,0.2,0.7,0.7v8.2c-0.1,0.4-0.2,0.6-0.5,0.6h-0.1
			c-0.3,0-0.5-0.2-0.5-0.6v-3.5h-1.9c-1,0-1.7,0.2-2.1,0.7v2.8c0,0.3-0.2,0.5-0.6,0.5c-0.4-0.1-0.6-0.3-0.6-0.5v-2.9
			c0-0.4,0.3-0.9,0.8-1.3c-0.6-0.4-0.8-0.8-0.8-1.3v-1.5c0-0.9,0.8-1.5,2.4-1.9C353.9,148,354.3,147.9,354.7,147.9z M352.2,151.2
			c0,0.5,0.6,0.7,1.8,0.9h2.2v-2.9h-1.9c-1.1,0-1.9,0.3-2.1,0.8V151.2z"/>
		<path id="XMLID_122_" class="st0" d="M134.3,157.2L134.3,157.2c-0.3,0.2-0.6,0.1-0.8-0.1l-5.8-8c-0.2-0.3-0.1-0.6,0.1-0.8l0,0
			c0.3-0.2,0.6-0.1,0.8,0.1l5.8,8C134.6,156.7,134.6,157,134.3,157.2z"/>
		<path id="XMLID_121_" class="st0" d="M127.4,157.2L127.4,157.2c0.3,0.2,0.6,0.1,0.8-0.1l5.8-8c0.2-0.3,0.1-0.6-0.1-0.8l0,0
			c-0.3-0.2-0.6-0.1-0.8,0.1l-5.8,8C127.1,156.7,127.2,157.1,127.4,157.2z"/>
	</g>
	<g id="XMLID_3_">
		<path id="XMLID_10_" class="st1" d="M40.2,35.9c-0.6,0.4-1.5,0.4-0.8,8.4l-2.1,0.1L37,37l2-0.1l0,0l0.4-1l-2,0.1l-0.5,0l-0.6-10.3
			l1.3-0.1l-0.1-2.4L3.3,25.2l0.1,2.4L5,27.5l0.6,10.3l-2.7,0.2l0.6,0.9c0.5,1.4,0.7,3.8,0.8,6.3c0,0.4,0,0.8,0.1,1.1l-1,0.1
			l0.2,3.5l36.7-2l-0.2-3.5c0,0-0.8-7.7,0.4-7.9c0,0,0.3-0.1,1.1,0.7l0.3-0.4C41.9,36.7,40.9,35.5,40.2,35.9z M7,27.4l3-0.2l0.1,1.3
			l0.5,9l-3,0.2L7,27.4z M5.3,38.7l0.4,0l0.4,7.4l-0.4,0L5.3,38.7z M8,46l-0.4-7.4l3-0.2v0l0.3,5.5l0.1,1.9L8,46z M11.7,28.4
			l5.4-0.3l0.2,4.4c-0.1,0.5-0.1,1,0,1.5l0.2,0.9l0.1,2.2l-5.4,0.3L11.7,28.4z M12.6,43.9l-0.3-5.5l5.4-0.3l0.3,5.5L12.6,43.9z
			 M20.7,29.7C20.7,29.7,20.7,29.7,20.7,29.7c-0.8,0.1-1.5,0.4-2.1,0.8L18.5,28l2.2-0.1l2.2-0.1l0.1,2.5
			C22.3,29.9,21.5,29.6,20.7,29.7z M24.5,34.1l0-0.5c0-0.4,0-0.9-0.1-1.3l-0.3-4.6l0,0l5.4-0.3l0,0l0.5,9l0,0l-5.4,0.3L24.5,34.1z
			 M30.4,42.9L25,43.2l0,0l-0.3-5.5l5.4-0.3l0,0l0,0L30.4,42.9L30.4,42.9z M31.3,27.3L31.2,26l3.2-0.2l0.6,10.3l-3.2,0.2v0
			L31.3,27.3z M32.2,44.7l-0.1-1.9l-0.3-5.5l3.2-0.2l0.4,7.4L32.2,44.7z"/>
		<path id="XMLID_13_" class="st0" d="M4.3,24.1l32.2-1.8c-0.6-4.7-3.1-8.7-6.7-11.2c0.2-0.3,0.3-0.6,0.3-0.9c0-0.7-0.7-1.3-1.4-1.3
			L25.8,9c-1.8-0.6-3.8-1-5.8-0.9l0-0.8l1.3-0.1L23,7.1l-0.4-6.6C22.6,0.2,22.3,0,22,0c0,0-2.1,0.3-2.9,0.3c-0.7,0-2.9,0-2.9,0
			c-0.3,0-0.6,0.3-0.6,0.6L16,7.5l1.1-0.1l2-0.1l0,0.8l-0.4,0l0,0c-1.9,0.2-3.6,0.7-5.3,1.5l-3.4,0.2c-0.7,0-1.3,0.7-1.3,1.4
			c0,0.5,0.3,0.9,0.7,1.1C6.3,15.3,4.3,19.5,4.3,24.1z M18.2,3.8c0-0.6,0.4-1.1,1-1.1c0.6,0,1.1,0.4,1.1,1c0,0.6-0.4,1.1-1,1.1
			C18.8,4.9,18.3,4.4,18.2,3.8z"/>
		<path id="XMLID_72_" class="st0" d="M35.7,50.4L8.2,52L2,131.6l48.6-2.7L35.7,50.4z M21.3,88.9L21.3,88.9L21.3,88.9
			C21.3,88.9,21.3,88.9,21.3,88.9L21.3,88.9C21.3,88.9,21.3,88.9,21.3,88.9C21.3,88.9,21.3,88.9,21.3,88.9L21.3,88.9
			C21.3,88.9,21.3,88.9,21.3,88.9L21.3,88.9C21.3,88.9,21.3,88.9,21.3,88.9C21.3,88.9,21.3,88.9,21.3,88.9z M21.3,88.9L21.3,88.9
			C21.3,88.9,21.3,88.9,21.3,88.9C21.3,88.9,21.3,88.9,21.3,88.9z"/>
		<polygon id="XMLID_71_" class="st0" points="52.9,131.2 0,134.1 0.5,142.9 5.1,142.6 5.1,143.1 48.8,140.7 48.7,140.2 53.4,140 		
			"/>
		<g id="XMLID_4_">
			<path id="XMLID_172_" d="M35.8,104.8c-0.1,1-0.2,0.8-0.3,1.7c-0.2,2.6-0.7,2.2-1,3.4c-0.5,2.3-1.8,4.2-3.4,6
				c-0.7,0.7-0.7,0.8-1.6,1.4c-0.8,0.6-1.9,2.4-3.4,2.8c-2.5,0.7-4.2-0.6-5.7-2.3c-0.3-0.3-0.5-0.6-0.9-1c-0.5-0.6-0.8-0.4-1.1-0.9
				c-0.7-0.8-2-4.5-2.2-6c-0.5-2.6-0.2-4.9-0.6-7.5c-0.6-7.4,0-3.5,0.5-10c0.2-1.3,0-2.9,0.3-4.1c0.2-0.6,0.3-5.2,0.7-7.5
				c0.2-1.8-0.2-2.2-0.1-3.6c0-1.2,0.5-2.3,0.4-3.9c0.1-2.5-0.4-8.6-1.8-10.3c-3.4-4.4-2-3.9-1.5-4.7c1.1,0.1,0.9,0.4,2.1,0.3
				c1.1,0,0.9,0.2,1.9,0.7c3.6,2,4.2,1,5.6,4.2c2.2,4.5,2.8,7.2,2.2,12.4c-0.2,1.7,0,3.1,0,4.6c-0.2,1.6-0.5,3.2-0.6,4.6
				c-0.6,4.9-0.6,9.9-0.9,14.6c-0.1,1.6-0.2-0.5-0.2,1.2c-0.1,6.9-0.4,0.7,0.8,6.8c0.3,1.9,0.4,5,3,6.7c1.4-0.6,3.5-3.5,4.4-5.2
				c1.3-2.8,3-6.4,3.4-9.7c0.9-8,0.8-6.8,2.8-6.8c-0.2,0.8-0.3,1.3-0.3,2c0,0.7-0.2,1.3-0.3,2L35.8,104.8z"/>
		</g>
	</g>
</g>
</svg>
